<?xml version="1.0" standalone="no"?>
<!DOCTYPE svg PUBLIC "-//W3C//DTD SVG 20010904//EN"
 "http://www.w3.org/TR/2001/REC-SVG-20010904/DTD/svg10.dtd">
<svg version="1.0" xmlns="http://www.w3.org/2000/svg"
 width="164.000000pt" height="164.000000pt" viewBox="0 0 164.000000 164.000000"
 preserveAspectRatio="xMidYMid meet">

<g transform="translate(0.000000,164.000000) scale(0.100000,-0.100000)"
fill="#000000" stroke="none">
<path d="M328 1621 c-142 -46 -261 -160 -309 -297 -18 -52 -19 -83 -17 -523
l3 -467 37 -75 c47 -95 130 -177 225 -222 l68 -32 475 0 c443 0 478 1 525 19
109 42 204 129 255 234 18 37 36 75 41 84 12 24 12 923 0 946 -6 9 -21 42 -34
72 -53 121 -166 220 -294 260 -61 19 -92 20 -492 19 -384 0 -432 -2 -483 -18z
m735 -265 c54 -20 101 -59 123 -103 16 -33 19 -66 22 -245 4 -244 -2 -276 -62
-333 -55 -54 -99 -65 -250 -65 l-126 0 0 -163 c0 -113 -4 -167 -12 -175 -17
-17 -309 -17 -326 0 -9 9 -12 145 -12 548 0 295 3 540 7 543 3 4 139 7 302 7
221 -1 306 -4 334 -14z"/>
<path d="M450 818 l0 -528 145 0 145 0 0 169 0 168 143 5 c150 5 198 17 246
61 46 43 51 72 51 294 0 181 -3 213 -19 249 -18 39 -50 69 -96 90 -11 5 -154
11 -318 14 l-297 5 0 -527z m429 308 c7 -5 11 -54 11 -141 0 -152 4 -145 -91
-145 l-59 0 0 151 0 152 64 -5 c35 -3 69 -9 75 -12z"/>
<path d="M770 990 l0 -120 45 0 45 0 0 120 0 120 -45 0 -45 0 0 -120z"/>
</g>
</svg>
