<?xml version="1.0" standalone="no"?>
<!DOCTYPE svg PUBLIC "-//W3C//DTD SVG 20010904//EN"
 "http://www.w3.org/TR/2001/REC-SVG-20010904/DTD/svg10.dtd">
<svg version="1.0" xmlns="http://www.w3.org/2000/svg"
 width="45px" height="45px" viewBox="0 0 512.000000 512.000000"
 preserveAspectRatio="xMidYMid meet">

<g transform="translate(0.000000,512.000000) scale(0.087890625,-0.087890625)"
fill="#000000" stroke="none">
<path d="M1355 5113 c-201 -24 -375 -76 -544 -163 -411 -213 -701 -605 -787
-1065 -18 -94 -19 -171 -19 -1325 0 -1154 1 -1231 19 -1325 115 -617 594
-1096 1211 -1211 94 -18 171 -19 1335 -19 l1235 0 105 23 c463 102 829 377
1039 782 68 130 109 247 143 400 l23 105 0 1235 c0 1164 -1 1241 -19 1335
-107 576 -532 1036 -1093 1185 -182 49 -210 50 -1453 48 -641 0 -1178 -3
-1195 -5z m1775 -833 c208 -27 355 -92 471 -209 85 -85 125 -156 161 -286 22
-79 23 -90 23 -680 0 -546 -2 -607 -18 -680 -54 -232 -192 -387 -419 -467
-140 -49 -228 -58 -595 -58 l-333 0 0 -495 c0 -538 0 -538 -55 -563 -19 -9
-153 -12 -495 -12 l-470 0 -32 29 -33 29 0 1672 0 1672 33 29 32 29 828 0
c474 0 859 -5 902 -10z"/>
<path d="M1430 2560 l0 -1630 445 0 445 0 0 535 0 535 383 0 c415 0 496 7 625
56 90 34 151 75 216 144 59 65 94 130 123 230 17 60 18 113 18 665 0 552 -1
605 -18 665 -60 209 -193 334 -424 398 l-98 26 -857 4 -858 3 0 -1631z m1317
982 c51 -29 53 -42 53 -449 0 -282 -3 -384 -13 -403 -26 -52 -64 -60 -274 -60
l-193 0 0 466 0 466 203 -4 c140 -2 209 -7 224 -16z"/>
<path d="M2420 3095 l0 -365 140 0 140 0 -2 363 -3 362 -137 3 -138 3 0 -366z"/>
</g>
</svg>
